<svg width="604" height="604" viewBox="0 0 604 604" fill="none" xmlns="http://www.w3.org/2000/svg">
<path d="M75.5 75.5C75.5 55.4762 83.4544 36.2724 97.6134 22.1134C111.772 7.95444 130.976 0 151 0L453 0C473.024 0 492.228 7.95444 506.387 22.1134C520.546 36.2724 528.5 55.4762 528.5 75.5V585.125C528.498 588.539 527.57 591.889 525.815 594.818C524.06 597.746 521.544 600.144 518.534 601.755C515.524 603.367 512.133 604.132 508.723 603.969C505.313 603.806 502.011 602.72 499.168 600.829L302 494.563L104.832 600.829C101.989 602.72 98.6872 603.806 95.2769 603.969C91.8666 604.132 88.4759 603.367 85.466 601.755C82.456 600.144 79.9396 597.746 78.1846 594.818C76.4296 591.889 75.5018 588.539 75.5 585.125V75.5ZM151 37.75C140.988 37.75 131.386 41.7272 124.307 48.8067C117.227 55.8862 113.25 65.4881 113.25 75.5V549.866L291.543 456.171C294.641 454.11 298.279 453.01 302 453.01C305.721 453.01 309.359 454.11 312.457 456.171L490.75 549.866V75.5C490.75 65.4881 486.773 55.8862 479.693 48.8067C472.614 41.7272 463.012 37.75 453 37.75H151Z" fill="white"/>
</svg>
