<svg width="498" height="498" viewBox="0 0 498 498" fill="none" xmlns="http://www.w3.org/2000/svg">
<path d="M218.964 55.5114C227.376 48.4426 238.012 44.5672 249 44.5672C259.988 44.5672 270.624 48.4426 279.036 55.5114L419.098 173.288C424.312 177.669 428.504 183.138 431.38 189.31C434.257 195.483 435.748 202.21 435.75 209.02V404.641C435.75 412.895 432.471 420.812 426.634 426.649C420.797 432.486 412.88 435.766 404.625 435.766H319.031C310.776 435.766 302.86 432.486 297.023 426.649C291.185 420.812 287.906 412.895 287.906 404.641V295.703H210.094V404.641C210.094 412.895 206.815 420.812 200.977 426.649C195.14 432.486 187.224 435.766 178.969 435.766H93.375C85.1201 435.766 77.2034 432.486 71.3663 426.649C65.5292 420.812 62.25 412.895 62.25 404.641V209.004C62.2517 202.195 63.7432 195.467 66.6197 189.295C69.4963 183.122 73.6883 177.654 78.9019 173.273L218.964 55.4959V55.5114Z" fill="white"/>
</svg>
