<svg width="408" height="408" viewBox="0 0 408 408" fill="none" xmlns="http://www.w3.org/2000/svg">
<path d="M132.6 204C129.895 204 127.3 205.075 125.388 206.987C123.475 208.9 122.4 211.495 122.4 214.2C122.4 216.905 123.475 219.5 125.388 221.412C127.3 223.325 129.895 224.4 132.6 224.4H275.4C278.105 224.4 280.7 223.325 282.613 221.412C284.525 219.5 285.6 216.905 285.6 214.2C285.6 211.495 284.525 208.9 282.613 206.987C280.7 205.075 278.105 204 275.4 204H132.6ZM132.6 244.8C129.895 244.8 127.3 245.875 125.388 247.787C123.475 249.7 122.4 252.295 122.4 255C122.4 257.705 123.475 260.3 125.388 262.212C127.3 264.125 129.895 265.2 132.6 265.2H275.4C278.105 265.2 280.7 264.125 282.613 262.212C284.525 260.3 285.6 257.705 285.6 255C285.6 252.295 284.525 249.7 282.613 247.787C280.7 245.875 278.105 244.8 275.4 244.8H132.6ZM132.6 285.6C129.895 285.6 127.3 286.675 125.388 288.587C123.475 290.5 122.4 293.095 122.4 295.8C122.4 298.505 123.475 301.1 125.388 303.012C127.3 304.925 129.895 306 132.6 306H275.4C278.105 306 280.7 304.925 282.613 303.012C284.525 301.1 285.6 298.505 285.6 295.8C285.6 293.095 284.525 290.5 282.613 288.587C280.7 286.675 278.105 285.6 275.4 285.6H132.6ZM81.6001 81.6C81.6001 70.7792 85.8987 60.4015 93.5501 52.75C101.202 45.0985 111.579 40.8 122.4 40.8H215.955C224.067 40.8071 231.845 44.0357 237.578 49.776L317.444 129.622C323.177 135.358 326.398 143.136 326.4 151.246V326.4C326.4 337.221 322.102 347.598 314.45 355.25C306.799 362.901 296.421 367.2 285.6 367.2H122.4C111.579 367.2 101.202 362.901 93.5501 355.25C85.8987 347.598 81.6001 337.221 81.6001 326.4V81.6ZM122.4 61.2C116.99 61.2 111.801 63.3493 107.975 67.175C104.149 71.0007 102 76.1896 102 81.6V326.4C102 331.81 104.149 336.999 107.975 340.825C111.801 344.651 116.99 346.8 122.4 346.8H285.6C291.011 346.8 296.199 344.651 300.025 340.825C303.851 336.999 306 331.81 306 326.4V163.2H234.6C226.484 163.2 218.701 159.976 212.963 154.237C207.224 148.499 204 140.716 204 132.6V61.2H122.4ZM234.6 142.8H301.777L224.4 65.4228V132.6C224.4 135.305 225.475 137.9 227.388 139.812C229.3 141.725 231.895 142.8 234.6 142.8Z" fill="white"/>
</svg>
