<svg width="1024" height="1024" viewBox="0 0 1024 1024" fill="none" xmlns="http://www.w3.org/2000/svg">
<path d="M128 224V736C128 752.974 134.743 769.252 146.745 781.255C158.747 793.257 175.026 800 192 800H832C848.974 800 865.252 793.257 877.255 781.255C889.257 769.252 896 752.974 896 736V224H128ZM128 160H896C912.974 160 929.252 166.743 941.255 178.745C953.257 190.747 960 207.026 960 224V736C960 769.948 946.514 802.505 922.51 826.51C898.505 850.514 865.948 864 832 864H192C158.052 864 125.495 850.514 101.49 826.51C77.4857 802.505 64 769.948 64 736V224C64 207.026 70.7428 190.747 82.7452 178.745C94.7475 166.743 111.026 160 128 160V160Z" fill="white"/>
<path d="M904 224L656.512 506.88C638.491 527.481 616.274 543.991 591.349 555.303C566.425 566.615 539.371 572.467 512 572.467C484.629 572.467 457.575 566.615 432.651 555.303C407.726 543.991 385.509 527.481 367.488 506.88L120 224H904ZM205.056 224L415.616 464.704C427.63 478.442 442.443 489.451 459.061 496.995C475.679 504.538 493.718 508.441 511.968 508.441C530.218 508.441 548.257 504.538 564.875 496.995C581.493 489.451 596.306 478.442 608.32 464.704L818.944 224H205.056V224Z" fill="white"/>
</svg>
