<svg width="571" height="571" viewBox="0 0 571 571" fill="none" xmlns="http://www.w3.org/2000/svg">
<path d="M199.85 285.5C199.85 293.072 196.842 300.334 191.488 305.688C186.134 311.042 178.872 314.05 171.3 314.05C163.728 314.05 156.466 311.042 151.112 305.688C145.758 300.334 142.75 293.072 142.75 285.5C142.75 277.928 145.758 270.666 151.112 265.312C156.466 259.958 163.728 256.95 171.3 256.95C178.872 256.95 186.134 259.958 191.488 265.312C196.842 270.666 199.85 277.928 199.85 285.5V285.5ZM314.05 285.5C314.05 293.072 311.042 300.334 305.688 305.688C300.334 311.042 293.072 314.05 285.5 314.05C277.928 314.05 270.666 311.042 265.312 305.688C259.958 300.334 256.95 293.072 256.95 285.5C256.95 277.928 259.958 270.666 265.312 265.312C270.666 259.958 277.928 256.95 285.5 256.95C293.072 256.95 300.334 259.958 305.688 265.312C311.042 270.666 314.05 277.928 314.05 285.5V285.5ZM428.25 285.5C428.25 293.072 425.242 300.334 419.888 305.688C414.534 311.042 407.272 314.05 399.7 314.05C392.128 314.05 384.866 311.042 379.512 305.688C374.158 300.334 371.15 293.072 371.15 285.5C371.15 277.928 374.158 270.666 379.512 265.312C384.866 259.958 392.128 256.95 399.7 256.95C407.272 256.95 414.534 259.958 419.888 265.312C425.242 270.666 428.25 277.928 428.25 285.5V285.5ZM285.5 57.1001C224.925 57.1001 166.83 81.1636 123.997 123.997C81.1636 166.83 57.1001 224.925 57.1001 285.5C57.1001 346.076 81.1636 404.17 123.997 447.003C166.83 489.837 224.925 513.9 285.5 513.9C346.076 513.9 404.17 489.837 447.003 447.003C489.837 404.17 513.9 346.076 513.9 285.5C513.9 224.925 489.837 166.83 447.003 123.997C404.17 81.1636 346.076 57.1001 285.5 57.1001V57.1001ZM85.6501 285.5C85.6501 259.255 90.8194 233.268 100.863 209.021C110.906 184.774 125.627 162.743 144.185 144.185C162.743 125.627 184.774 110.906 209.021 100.863C233.268 90.8194 259.255 85.6501 285.5 85.6501C311.745 85.6501 337.732 90.8194 361.979 100.863C386.226 110.906 408.258 125.627 426.815 144.185C445.373 162.743 460.094 184.774 470.137 209.021C480.181 233.268 485.35 259.255 485.35 285.5C485.35 338.504 464.294 389.336 426.815 426.815C389.336 464.294 338.504 485.35 285.5 485.35C232.497 485.35 181.664 464.294 144.185 426.815C106.706 389.336 85.6501 338.504 85.6501 285.5Z" fill="white"/>
</svg>
