<svg width="284" height="348" viewBox="0 0 284 348" fill="none" xmlns="http://www.w3.org/2000/svg">
<path d="M153.596 61.4649L130.018 61.4167C76.2353 61.288 29.5453 104.986 29.1754 157.917V218.872C29.1754 231.578 27.5671 243.979 20.6352 254.545L16.0193 261.59C8.99083 272.269 16.55 286.583 29.1754 286.583H254.825C267.45 286.583 274.993 272.269 267.981 261.59L263.365 254.545C256.449 243.979 254.825 231.562 254.825 218.856V157.933C254.181 104.986 207.379 61.5936 153.596 61.4649V61.4649Z" stroke="white" stroke-width="25" stroke-linecap="round" stroke-linejoin="round"/>
<path d="M190.25 286.583C190.25 299.38 185.167 311.653 176.118 320.701C167.069 329.75 154.797 334.833 142 334.833C129.203 334.833 116.931 329.75 107.882 320.701C98.8335 311.653 93.75 299.38 93.75 286.583" stroke="white" stroke-width="25" stroke-linecap="round" stroke-linejoin="round"/>
<path d="M142 13.1666C150.531 13.1666 158.713 16.5556 164.745 22.588C170.778 28.6204 174.167 36.8022 174.167 45.3333V61.4166H109.833V45.3333C109.833 36.8022 113.222 28.6204 119.255 22.588C125.287 16.5556 133.469 13.1666 142 13.1666Z" stroke="white" stroke-width="25" stroke-linecap="round" stroke-linejoin="round"/>
</svg>
