<svg width="512" height="512" viewBox="0 0 512 512" fill="none" xmlns="http://www.w3.org/2000/svg">
<path d="M256 256C278.152 256 299.806 249.431 318.224 237.125C336.642 224.818 350.998 207.326 359.475 186.861C367.952 166.395 370.17 143.876 365.848 122.15C361.526 100.424 350.859 80.4675 335.196 64.804C319.532 49.1405 299.576 38.4736 277.85 34.152C256.124 29.8305 233.605 32.0485 213.139 40.5255C192.674 49.0025 175.182 63.3578 162.875 81.7761C150.569 100.194 144 121.848 144 144C144 173.704 155.8 202.192 176.804 223.196C197.808 244.2 226.296 256 256 256ZM256 288C186.58 288 48 330.88 48 416V480H464V416C464 330.88 325.42 288 256 288Z" fill="white"/>
</svg>
