<svg width="301" height="270" viewBox="0 0 301 270" fill="none" xmlns="http://www.w3.org/2000/svg">
<g clip-path="url(#clip0_19_13)">
<path d="M245.765 53.5726C248.102 55.8757 249.664 58.8492 250.234 62.0803C250.804 65.3115 250.354 68.64 248.947 71.6039L185.58 133.193L248.947 194.782C250.308 197.751 250.729 201.065 250.151 204.28C249.574 207.495 248.026 210.456 245.717 212.765C243.407 215.075 240.446 216.622 237.232 217.199C234.017 217.777 230.702 217.357 227.734 215.995L166.145 156.5L104.556 215.995C101.587 217.357 98.2722 217.777 95.0575 217.199C91.8428 216.622 88.8817 215.075 86.5722 212.765C84.2627 210.456 82.7153 207.495 82.1379 204.28C81.5605 201.065 81.9808 197.751 83.3423 194.782L145.08 133.193L83.3423 71.6039C81.9808 68.635 81.5605 65.3206 82.1379 62.1058C82.7153 58.8911 84.2627 55.9301 86.5722 53.6206C88.8817 51.311 91.8428 49.7636 95.0575 49.1862C98.2722 48.6089 101.587 49.0292 104.556 50.3907L166.145 97L227.734 50.3907C230.697 48.9832 234.026 48.5333 237.257 49.1035C240.488 49.6737 243.462 51.2357 245.765 53.5726Z" fill="white"/>
</g>
<path d="M30.8219 48V78M30.8219 108V78M30.8219 78H0H60" stroke="white" stroke-width="7" stroke-linecap="round"/>
<path d="M143.822 206V236M143.822 266V236M143.822 236H113H173" stroke="white" stroke-width="7" stroke-linecap="round"/>
<defs>
<clipPath id="clip0_19_13">
<rect width="256" height="256" fill="white" transform="translate(45)"/>
</clipPath>
</defs>
</svg>
