<svg width="459" height="438" viewBox="0 0 459 438" fill="none" xmlns="http://www.w3.org/2000/svg">
<path d="M436.456 243.766C448.983 229.441 448.983 208.059 436.456 193.734L418.231 172.895C411.379 165.06 408.041 154.758 408.996 144.393L411.527 116.915C413.276 97.9344 400.693 80.5948 382.105 76.3726L355.347 70.2948C345.153 67.979 336.362 61.5653 331.045 52.5635L316.999 28.7811C307.279 12.3241 286.848 5.64757 269.286 13.189L244.16 23.9782C234.587 28.089 223.746 28.089 214.173 23.9782L189.005 13.1708C171.461 5.63716 151.051 12.2915 141.319 28.718L127.322 52.3421C121.984 61.351 113.166 67.758 102.949 70.0506L76.3261 76.024C57.6936 80.2047 45.0576 97.5637 46.805 116.579L49.3459 144.229C50.2959 154.568 46.9746 164.845 40.1538 172.672L21.7943 193.74C9.30892 208.068 9.32783 229.416 21.8386 243.721L40.1059 264.609C46.9559 272.441 50.2944 282.74 49.3422 293.102L46.7969 320.801C45.053 339.778 57.6361 357.113 76.2203 361.334L103.016 367.42C113.193 369.732 121.972 376.128 127.292 385.107L141.276 408.71C151.027 425.168 171.491 431.811 189.049 424.22L214.138 413.373C223.731 409.225 234.608 409.212 244.212 413.336L269.328 424.121C286.872 431.655 307.282 425 317.015 408.574L331.042 384.898C336.362 375.92 345.14 369.524 355.317 367.212L382.105 361.127C400.693 356.905 413.276 339.566 411.527 320.585L408.996 293.107C408.041 282.742 411.379 272.44 418.231 264.605L436.456 243.766ZM189.375 317.083L110.208 237.708L141.042 206.875L189.375 255.417L311.25 133.125L342.083 163.958L189.375 317.083Z" fill="white"/>
</svg>
