<svg width="488" height="488" viewBox="0 0 488 488" fill="none" xmlns="http://www.w3.org/2000/svg">
<path d="M153.293 457.5C337.452 457.5 438.193 304.908 438.193 172.813C438.193 168.543 438.194 164.212 438.011 159.942C457.624 145.744 474.551 128.166 488 108.031C469.679 116.109 450.264 121.433 430.386 123.83C451.325 111.314 467.008 91.621 474.519 68.4115C454.846 80.0663 433.314 88.2479 410.865 92.598C395.774 76.5252 375.803 65.8775 354.047 62.3041C332.29 58.7307 309.963 62.4311 290.523 72.8321C271.083 83.2331 255.615 99.7542 246.515 119.836C237.415 139.918 235.191 162.441 240.188 183.915C200.377 181.919 161.431 171.577 125.875 153.56C90.3187 135.543 58.9469 110.253 33.794 79.3305C21.0249 101.385 17.128 127.472 22.8947 152.295C28.6614 177.118 43.6594 198.815 64.843 212.982C48.969 212.442 33.4439 208.18 19.52 200.538V201.91C19.5474 225.013 27.5509 247.398 42.1777 265.282C56.8044 283.165 77.1573 295.45 99.796 300.059C91.203 302.426 82.3265 303.606 73.4135 303.567C67.13 303.586 60.8591 303.003 54.6865 301.828C61.085 321.716 73.5438 339.104 90.318 351.558C107.092 364.011 127.342 370.906 148.23 371.277C112.745 399.147 68.9117 414.263 23.79 414.19C15.8393 414.224 7.89411 413.765 0 412.818C45.7962 442.014 98.9816 457.517 153.293 457.5V457.5Z" fill="white"/>
</svg>
